<?xml version="1.0" encoding="UTF-8"?> <svg xmlns="http://www.w3.org/2000/svg" width="176" height="32" viewBox="0 0 176 32" fill="none"><path d="M24.4386 13.8356C24.4386 22.309 27.6829 30 19.2261 30C10.7692 30 4 23.9529 4 15.4795C4 7.00604 12.6896 0 21.1465 0C29.6033 0 24.4386 5.36221 24.4386 13.8356Z" fill="#1DCEFA"></path><path d="M14.6969 21V9H15.3425V21H14.6969ZM16.7165 12.7219C16.6745 12.2781 16.5013 11.9344 16.1969 11.6906C15.8924 11.4438 15.5092 11.3203 15.0472 11.3203C14.7165 11.3203 14.4304 11.3828 14.189 11.5078C13.9475 11.6297 13.7598 11.7984 13.626 12.0141C13.4948 12.2266 13.4291 12.4688 13.4291 12.7406C13.4291 12.9688 13.4738 13.1656 13.563 13.3313C13.6549 13.4969 13.7743 13.6359 13.9213 13.7484C14.0709 13.8578 14.231 13.95 14.4016 14.025C14.5722 14.0969 14.7362 14.1563 14.8937 14.2031L15.6811 14.4469C15.9383 14.5219 16.2021 14.6234 16.4724 14.7516C16.7428 14.8797 16.9934 15.0484 17.2244 15.2578C17.4554 15.4672 17.6417 15.7266 17.7835 16.0359C17.9278 16.3453 18 16.7156 18 17.1469C18 17.6906 17.8819 18.1734 17.6457 18.5953C17.4121 19.0172 17.0722 19.35 16.626 19.5938C16.1824 19.8375 15.6457 19.9594 15.0157 19.9594C14.4121 19.9594 13.8898 19.8453 13.4488 19.6172C13.0079 19.3891 12.6627 19.0656 12.4134 18.6469C12.164 18.225 12.0262 17.725 12 17.1469H13.2205C13.2441 17.4937 13.3386 17.7828 13.5039 18.0141C13.6719 18.2422 13.8858 18.4125 14.1457 18.525C14.4081 18.6344 14.6955 18.6891 15.0079 18.6891C15.3517 18.6891 15.6575 18.625 15.9252 18.4969C16.1955 18.3656 16.4081 18.1844 16.563 17.9531C16.7178 17.7188 16.7953 17.4453 16.7953 17.1328C16.7953 16.8484 16.727 16.6156 16.5906 16.4344C16.4567 16.2531 16.2743 16.1031 16.0433 15.9844C15.815 15.8656 15.5564 15.7609 15.2677 15.6703L14.315 15.3609C13.6693 15.1516 13.1575 14.8438 12.7795 14.4375C12.4042 14.0313 12.2165 13.4938 12.2165 12.825C12.2165 12.2719 12.3425 11.7891 12.5945 11.3766C12.8465 10.9641 13.1877 10.6438 13.6181 10.4156C14.0486 10.1844 14.5341 10.0688 15.0748 10.0688C15.6207 10.0688 16.1024 10.1828 16.5197 10.4109C16.9396 10.6391 17.2703 10.9531 17.5118 11.3531C17.7533 11.75 17.8793 12.2063 17.8898 12.7219H16.7165Z" fill="white"></path><path d="M34.0791 18.2731V14.257C34.8439 14.8678 35.6746 15.328 36.5713 15.6375C37.4679 15.9388 38.3734 16.0894 39.2876 16.0894C39.8238 16.0894 40.2897 16.0433 40.6853 15.9513C41.0897 15.8593 41.4237 15.7338 41.6874 15.5748C41.9599 15.4075 42.1621 15.215 42.294 14.9975C42.4259 14.7716 42.4918 14.5289 42.4918 14.2696C42.4918 13.9182 42.3863 13.6044 42.1753 13.3283C41.9643 13.0522 41.6743 12.797 41.305 12.5628C40.9446 12.3285 40.5139 12.1026 40.0128 11.885C39.5117 11.6675 38.9711 11.4458 38.3909 11.2199C36.9141 10.6342 35.8109 9.91884 35.0813 9.0738C34.3604 8.22875 34 7.208 34 6.01155C34 5.07446 34.1978 4.27125 34.5934 3.60191C34.9889 2.9242 35.5252 2.3678 36.2021 1.93273C36.8877 1.49766 37.6789 1.17972 38.5755 0.978916C39.4722 0.769746 40.4216 0.665161 41.4237 0.665161C42.4083 0.665161 43.2785 0.723728 44.0345 0.840863C44.7993 0.949632 45.5026 1.12115 46.1443 1.35542V5.10793C45.8278 4.89876 45.4806 4.71469 45.1026 4.55572C44.7334 4.39675 44.351 4.26707 43.9554 4.16667C43.5598 4.0579 43.1643 3.97841 42.7687 3.92821C42.3819 3.87801 42.0127 3.85291 41.6611 3.85291C41.1776 3.85291 40.738 3.89893 40.3425 3.99096C39.9469 4.07463 39.6128 4.19595 39.3403 4.35492C39.0678 4.51389 38.8568 4.70632 38.7074 4.93223C38.558 5.14977 38.4832 5.39659 38.4832 5.67269C38.4832 5.9739 38.5668 6.24582 38.7338 6.48845C38.9008 6.72272 39.1381 6.94863 39.4458 7.16616C39.7535 7.37533 40.1271 7.5845 40.5666 7.79367C41.0062 7.99448 41.5028 8.20365 42.0566 8.42118C42.8126 8.72239 43.4895 9.04451 44.0873 9.38755C44.6938 9.72222 45.2125 10.1029 45.6432 10.5296C46.074 10.9563 46.4036 11.4458 46.6322 11.998C46.8607 12.5418 46.975 13.1777 46.975 13.9056C46.975 14.9096 46.7728 15.7547 46.3685 16.4408C45.9729 17.1185 45.4323 17.6707 44.7466 18.0974C44.0609 18.5157 43.261 18.8169 42.3467 19.001C41.4413 19.1851 40.4831 19.2771 39.4722 19.2771C38.4349 19.2771 37.4459 19.1934 36.5053 19.0261C35.5735 18.8588 34.7648 18.6078 34.0791 18.2731Z" fill="#150726"></path><path d="M60.9126 18.9634H56.97V17.1185H56.9173C56.0118 18.5576 54.6712 19.2771 52.8955 19.2771C51.5857 19.2771 50.5528 18.9257 49.7968 18.2229C49.0496 17.5117 48.676 16.5663 48.676 15.3865C48.676 12.8932 50.2276 11.4541 53.3307 11.0693L56.9964 10.6049C56.9964 9.1993 56.1964 8.49649 54.5965 8.49649C52.9878 8.49649 51.4583 8.95248 50.0078 9.86446V6.87751C50.588 6.59304 51.3791 6.34203 52.3813 6.1245C53.3922 5.90696 54.3108 5.79819 55.1372 5.79819C58.9875 5.79819 60.9126 7.62634 60.9126 11.2826V18.9634ZM56.9964 13.7425V12.8765L54.5438 13.1777C53.19 13.345 52.5131 13.9265 52.5131 14.9222C52.5131 15.374 52.6758 15.7463 53.001 16.0392C53.3351 16.3236 53.7834 16.4659 54.346 16.4659C55.1284 16.4659 55.7657 16.2107 56.258 15.7003C56.7502 15.1816 56.9964 14.5289 56.9964 13.7425Z" fill="#150726"></path><path d="M75.4436 18.9634H71.501V17.1185H71.4482C70.5428 18.5576 69.2022 19.2771 67.4265 19.2771C66.1167 19.2771 65.0838 18.9257 64.3278 18.2229C63.5806 17.5117 63.207 16.5663 63.207 15.3865C63.207 12.8932 64.7585 11.4541 67.8616 11.0693L71.5273 10.6049C71.5273 9.1993 70.7274 8.49649 69.1275 8.49649C67.5188 8.49649 65.9892 8.95248 64.5388 9.86446V6.87751C65.119 6.59304 65.9101 6.34203 66.9122 6.1245C67.9232 5.90696 68.8418 5.79819 69.6681 5.79819C73.5184 5.79819 75.4436 7.62634 75.4436 11.2826V18.9634ZM71.5273 13.7425V12.8765L69.0748 13.1777C67.721 13.345 67.0441 13.9265 67.0441 14.9222C67.0441 15.374 67.2067 15.7463 67.532 16.0392C67.866 16.3236 68.3144 16.4659 68.877 16.4659C69.6593 16.4659 70.2967 16.2107 70.7889 15.7003C71.2812 15.1816 71.5273 14.5289 71.5273 13.7425Z" fill="#150726"></path><path d="M77.8566 18.6245V15.4116C78.5423 15.8049 79.2236 16.0977 79.9005 16.2902C80.5861 16.4826 81.2322 16.5788 81.8388 16.5788C82.5772 16.5788 83.1574 16.4826 83.5793 16.2902C84.0101 16.0977 84.2255 15.8049 84.2255 15.4116C84.2255 15.1606 84.1288 14.9515 83.9354 14.7841C83.742 14.6168 83.4914 14.4704 83.1838 14.3449C82.8849 14.2194 82.5552 14.1064 82.1948 14.006C81.8344 13.9056 81.4872 13.7927 81.1531 13.6672C80.6169 13.4747 80.1422 13.2697 79.729 13.0522C79.3247 12.8263 78.9818 12.5669 78.7005 12.2741C78.428 11.9813 78.217 11.6424 78.0676 11.2575C77.9269 10.8727 77.8566 10.4167 77.8566 9.88956C77.8566 9.17001 78.0193 8.55087 78.3445 8.03213C78.6786 7.51339 79.1181 7.09086 79.6631 6.76456C80.2169 6.42989 80.8455 6.18725 81.5487 6.03665C82.2607 5.87768 82.9992 5.79819 83.764 5.79819C84.3617 5.79819 84.9683 5.84421 85.5836 5.93624C86.199 6.01991 86.8055 6.14541 87.4033 6.31275V9.375C86.8758 9.08216 86.3088 8.86462 85.7023 8.72239C85.1045 8.57179 84.5156 8.49649 83.9354 8.49649C83.6629 8.49649 83.4035 8.52159 83.1574 8.57179C82.92 8.61362 82.7091 8.68055 82.5245 8.77259C82.3399 8.85626 82.1948 8.96921 82.0893 9.11145C81.9838 9.24531 81.9311 9.4001 81.9311 9.5758C81.9311 9.81007 82.0102 10.0109 82.1684 10.1782C82.3267 10.3455 82.5333 10.492 82.7882 10.6175C83.0431 10.7346 83.3244 10.8434 83.6321 10.9438C83.9486 11.0358 84.2606 11.132 84.5683 11.2324C85.1221 11.4165 85.6232 11.6173 86.0715 11.8348C86.5198 12.0524 86.9022 12.3076 87.2187 12.6004C87.5439 12.8932 87.7901 13.2363 87.9571 13.6295C88.1329 14.0228 88.2208 14.4913 88.2208 15.0351C88.2208 15.7965 88.045 16.4491 87.6934 16.993C87.3505 17.5284 86.889 17.9677 86.3088 18.3107C85.7375 18.6454 85.0738 18.8881 84.3178 19.0387C83.5706 19.1976 82.7926 19.2771 81.9838 19.2771C80.4982 19.2771 79.1225 19.0596 77.8566 18.6245Z" fill="#150726"></path><path d="M95.3017 12.7636V18.9634H91.0426V0.966365H97.7147C102.479 0.966365 104.862 2.87818 104.862 6.70181C104.862 8.50904 104.176 9.97323 102.805 11.0944C101.442 12.2072 99.6179 12.7636 97.3323 12.7636H95.3017ZM95.3017 4.07881V9.68876H96.9763C99.2443 9.68876 100.378 8.74331 100.378 6.85241C100.378 5.00335 99.2443 4.07881 96.9763 4.07881H95.3017Z" fill="#1DCEFA"></path><path d="M116.03 9.68876C115.529 9.42938 114.944 9.2997 114.276 9.2997C113.371 9.2997 112.663 9.61764 112.153 10.2535C111.644 10.881 111.389 11.7386 111.389 12.8263V18.9634H107.222V6.11195H111.389V8.49649H111.441C112.101 6.75619 113.287 5.88604 115.002 5.88604C115.441 5.88604 115.784 5.93624 116.03 6.03665V9.68876Z" fill="#1DCEFA"></path><path d="M120.197 4.07881C119.494 4.07881 118.918 3.8822 118.469 3.48896C118.021 3.08735 117.797 2.59789 117.797 2.02058C117.797 1.42654 118.021 0.941265 118.469 0.564759C118.918 0.188253 119.494 0 120.197 0C120.909 0 121.485 0.188253 121.924 0.564759C122.373 0.941265 122.597 1.42654 122.597 2.02058C122.597 2.62299 122.373 3.11663 121.924 3.50151C121.485 3.88638 120.909 4.07881 120.197 4.07881ZM122.254 18.9634H118.087V6.11195H122.254V18.9634Z" fill="#1DCEFA"></path><path d="M135.994 18.499C135.053 19.0177 133.695 19.2771 131.919 19.2771C129.845 19.2771 128.166 18.6789 126.882 17.4824C125.599 16.286 124.957 14.7423 124.957 12.8514C124.957 10.6677 125.643 8.94829 127.014 7.69327C128.394 6.42989 130.236 5.79819 132.539 5.79819C134.13 5.79819 135.282 5.999 135.994 6.4006V9.76406C135.123 9.14491 134.152 8.83534 133.08 8.83534C131.884 8.83534 130.935 9.17001 130.231 9.83936C129.537 10.5003 129.19 11.4165 129.19 12.5879C129.19 13.7257 129.524 14.621 130.192 15.2736C130.86 15.9178 131.779 16.24 132.948 16.24C133.985 16.24 135 15.9304 135.994 15.3112V18.499Z" fill="#1DCEFA"></path><path d="M140.846 4.07881C140.143 4.07881 139.567 3.8822 139.119 3.48896C138.67 3.08735 138.446 2.59789 138.446 2.02058C138.446 1.42654 138.67 0.941265 139.119 0.564759C139.567 0.188253 140.143 0 140.846 0C141.558 0 142.134 0.188253 142.573 0.564759C143.022 0.941265 143.246 1.42654 143.246 2.02058C143.246 2.62299 143.022 3.11663 142.573 3.50151C142.134 3.88638 141.558 4.07881 140.846 4.07881ZM142.903 18.9634H138.736V6.11195H142.903V18.9634Z" fill="#1DCEFA"></path><path d="M159.452 18.9634H155.298V11.8223C155.298 9.83099 154.551 8.83534 153.056 8.83534C152.336 8.83534 151.742 9.09889 151.276 9.626C150.81 10.1531 150.577 10.8225 150.577 11.634V18.9634H146.411V6.11195H150.577V8.14508H150.63C151.623 6.58049 153.07 5.79819 154.968 5.79819C157.957 5.79819 159.452 7.56359 159.452 11.0944V18.9634Z" fill="#1DCEFA"></path><path d="M176 17.495C176 19.8795 175.275 21.7244 173.824 23.0296C172.374 24.3432 170.273 25 167.521 25C165.702 25 164.26 24.7532 163.196 24.2595V20.9212C164.585 21.6909 165.987 22.0758 167.403 22.0758C168.809 22.0758 169.899 21.7202 170.673 21.009C171.446 20.3062 171.833 19.3482 171.833 18.135V17.1185H171.78C170.831 18.5576 169.429 19.2771 167.574 19.2771C165.851 19.2771 164.484 18.6998 163.473 17.5452C162.462 16.3906 161.957 14.8427 161.957 12.9016C161.957 10.7262 162.52 8.99849 163.645 7.71837C164.77 6.43825 166.251 5.79819 168.088 5.79819C169.732 5.79819 170.963 6.4006 171.78 7.60542H171.833V6.11195H176V17.495ZM171.886 12.7887V11.7721C171.886 10.9605 171.631 10.2702 171.121 9.7013C170.62 9.124 169.965 8.83534 169.156 8.83534C168.233 8.83534 167.508 9.17838 166.981 9.86446C166.453 10.5505 166.19 11.5169 166.19 12.7636C166.19 13.8345 166.44 14.6837 166.941 15.3112C167.442 15.9304 168.128 16.24 168.998 16.24C169.86 16.24 170.554 15.9262 171.082 15.2987C171.618 14.6628 171.886 13.8261 171.886 12.7887Z" fill="#1DCEFA"></path><path d="M35.9432 30H35.2045L37.3409 24.1818H38.0682L40.2045 30H39.4659L37.7273 25.1023H37.6818L35.9432 30ZM36.2159 27.7273H39.1932V28.3523H36.2159V27.7273ZM42.1703 24.1818V30H41.4999V24.1818H42.1703ZM44.5488 24.1818V30H43.8783V24.1818H44.5488ZM48.7568 27.1932V27.8182H46.2113V27.1932H48.7568ZM50.4164 30V25.6364H51.0869V30H50.4164ZM50.7574 24.9091C50.6267 24.9091 50.514 24.8646 50.4193 24.7756C50.3265 24.6866 50.2801 24.5795 50.2801 24.4545C50.2801 24.3295 50.3265 24.2225 50.4193 24.1335C50.514 24.0445 50.6267 24 50.7574 24C50.888 24 50.9998 24.0445 51.0926 24.1335C51.1873 24.2225 51.2346 24.3295 51.2346 24.4545C51.2346 24.5795 51.1873 24.6866 51.0926 24.7756C50.9998 24.8646 50.888 24.9091 50.7574 24.9091ZM53.4653 27.375V30H52.7949V25.6364H53.4426V26.3182H53.4994C53.6017 26.0966 53.757 25.9186 53.9653 25.7841C54.1737 25.6477 54.4426 25.5795 54.7722 25.5795C55.0676 25.5795 55.3261 25.6402 55.5477 25.7614C55.7693 25.8807 55.9417 26.0625 56.0648 26.3068C56.1879 26.5492 56.2494 26.8561 56.2494 27.2273V30H55.579V27.2727C55.579 26.9299 55.49 26.6629 55.3119 26.4716C55.1339 26.2784 54.8896 26.1818 54.579 26.1818C54.365 26.1818 54.1737 26.2282 54.0051 26.321C53.8384 26.4138 53.7068 26.5492 53.6102 26.7273C53.5136 26.9053 53.4653 27.1212 53.4653 27.375ZM60.4546 27.1932V27.8182H57.9091V27.1932H60.4546ZM67.1143 27.0909C67.1143 27.7045 67.0035 28.2348 66.7819 28.6818C66.5603 29.1288 66.2563 29.4735 65.8699 29.7159C65.4836 29.9583 65.0423 30.0795 64.5461 30.0795C64.0499 30.0795 63.6086 29.9583 63.2222 29.7159C62.8359 29.4735 62.5319 29.1288 62.3103 28.6818C62.0887 28.2348 61.9779 27.7045 61.9779 27.0909C61.9779 26.4773 62.0887 25.947 62.3103 25.5C62.5319 25.053 62.8359 24.7083 63.2222 24.4659C63.6086 24.2235 64.0499 24.1023 64.5461 24.1023C65.0423 24.1023 65.4836 24.2235 65.8699 24.4659C66.2563 24.7083 66.5603 25.053 66.7819 25.5C67.0035 25.947 67.1143 26.4773 67.1143 27.0909ZM66.4324 27.0909C66.4324 26.5871 66.3482 26.1619 66.1796 25.8153C66.0129 25.4688 65.7866 25.2064 65.5006 25.0284C65.2165 24.8504 64.8984 24.7614 64.5461 24.7614C64.1938 24.7614 63.8747 24.8504 63.5887 25.0284C63.3046 25.2064 63.0783 25.4688 62.9097 25.8153C62.743 26.1619 62.6597 26.5871 62.6597 27.0909C62.6597 27.5947 62.743 28.0199 62.9097 28.3665C63.0783 28.7131 63.3046 28.9754 63.5887 29.1534C63.8747 29.3314 64.1938 29.4205 64.5461 29.4205C64.8984 29.4205 65.2165 29.3314 65.5006 29.1534C65.7866 28.9754 66.0129 28.7131 66.1796 28.3665C66.3482 28.0199 66.4324 27.5947 66.4324 27.0909ZM69.3585 27.375V30H68.688V25.6364H69.3357V26.3182H69.3926C69.4948 26.0966 69.6501 25.9186 69.8585 25.7841C70.0668 25.6477 70.3357 25.5795 70.6653 25.5795C70.9607 25.5795 71.2193 25.6402 71.4409 25.7614C71.6624 25.8807 71.8348 26.0625 71.9579 26.3068C72.081 26.5492 72.1426 26.8561 72.1426 27.2273V30H71.4721V27.2727C71.4721 26.9299 71.3831 26.6629 71.2051 26.4716C71.027 26.2784 70.7827 26.1818 70.4721 26.1818C70.2581 26.1818 70.0668 26.2282 69.8982 26.321C69.7316 26.4138 69.5999 26.5492 69.5034 26.7273C69.4068 26.9053 69.3585 27.1212 69.3585 27.375ZM75.6772 30.0909C75.2568 30.0909 74.8941 29.9981 74.5892 29.8125C74.2861 29.625 74.0522 29.3636 73.8875 29.0284C73.7246 28.6913 73.6432 28.2992 73.6432 27.8523C73.6432 27.4053 73.7246 27.0114 73.8875 26.6705C74.0522 26.3277 74.2814 26.0606 74.575 25.8693C74.8704 25.6761 75.2151 25.5795 75.6091 25.5795C75.8363 25.5795 76.0608 25.6174 76.2824 25.6932C76.5039 25.7689 76.7057 25.892 76.8875 26.0625C77.0693 26.2311 77.2142 26.4545 77.3221 26.733C77.4301 27.0114 77.4841 27.3542 77.4841 27.7614V28.0455H74.1204V27.4659H76.8022C76.8022 27.2197 76.753 27 76.6545 26.8068C76.5579 26.6136 76.4197 26.4612 76.2397 26.3494C76.0617 26.2377 75.8515 26.1818 75.6091 26.1818C75.342 26.1818 75.111 26.2481 74.9159 26.3807C74.7227 26.5114 74.574 26.6818 74.4699 26.892C74.3657 27.1023 74.3136 27.3277 74.3136 27.5682V27.9545C74.3136 28.2841 74.3704 28.5634 74.4841 28.7926C74.5996 29.0199 74.7596 29.1932 74.9642 29.3125C75.1687 29.4299 75.4064 29.4886 75.6772 29.4886C75.8534 29.4886 76.0125 29.464 76.1545 29.4148C76.2985 29.3636 76.4225 29.2879 76.5267 29.1875C76.6308 29.0852 76.7113 28.9583 76.7682 28.8068L77.4159 28.9886C77.3477 29.2083 77.2331 29.4015 77.0721 29.5682C76.9111 29.733 76.7123 29.8617 76.4755 29.9545C76.2388 30.0455 75.9727 30.0909 75.6772 30.0909ZM84.9867 25.6364C84.9526 25.3485 84.8143 25.125 84.5719 24.9659C84.3295 24.8068 84.0321 24.7273 83.6799 24.7273C83.4223 24.7273 83.1969 24.7689 83.0037 24.8523C82.8124 24.9356 82.6628 25.0502 82.5549 25.196C82.4488 25.3419 82.3958 25.5076 82.3958 25.6932C82.3958 25.8485 82.4327 25.982 82.5066 26.0938C82.5823 26.2036 82.6789 26.2955 82.7963 26.3693C82.9138 26.4413 83.0369 26.5009 83.1657 26.5483C83.2944 26.5937 83.4128 26.6307 83.5208 26.6591L84.1117 26.8182C84.2632 26.858 84.4318 26.9129 84.6174 26.983C84.8049 27.053 84.9838 27.1487 85.1543 27.2699C85.3266 27.3892 85.4687 27.5426 85.5804 27.7301C85.6922 27.9176 85.748 28.1477 85.748 28.4205C85.748 28.7348 85.6657 29.0189 85.5009 29.2727C85.338 29.5265 85.0994 29.7282 84.785 29.8778C84.4725 30.0275 84.0927 30.1023 83.6458 30.1023C83.2291 30.1023 82.8683 30.035 82.5634 29.9006C82.2603 29.7661 82.0217 29.5786 81.8475 29.3381C81.6751 29.0975 81.5776 28.8182 81.5549 28.5H82.2821C82.3011 28.7197 82.3749 28.9015 82.5037 29.0455C82.6344 29.1875 82.7992 29.2936 82.998 29.3636C83.1988 29.4318 83.4147 29.4659 83.6458 29.4659C83.9147 29.4659 84.1562 29.4223 84.3702 29.3352C84.5842 29.2462 84.7537 29.1231 84.8787 28.9659C85.0037 28.8068 85.0662 28.6212 85.0662 28.4091C85.0662 28.2159 85.0122 28.0587 84.9043 27.9375C84.7963 27.8163 84.6543 27.7178 84.4782 27.642C84.302 27.5663 84.1117 27.5 83.9071 27.4432L83.1912 27.2386C82.7367 27.108 82.3768 26.9214 82.1117 26.679C81.8465 26.4366 81.7139 26.1193 81.7139 25.7273C81.7139 25.4015 81.802 25.1174 81.9782 24.875C82.1562 24.6307 82.3948 24.4413 82.6941 24.3068C82.9952 24.1705 83.3314 24.1023 83.7026 24.1023C84.0776 24.1023 84.4109 24.1695 84.7026 24.304C84.9943 24.4366 85.2253 24.6184 85.3958 24.8494C85.5681 25.0805 85.659 25.3428 85.6685 25.6364H84.9867ZM89.0682 30.0909C88.6743 30.0909 88.3287 29.9972 88.0313 29.8097C87.7359 29.6222 87.5048 29.3598 87.3381 29.0227C87.1734 28.6856 87.091 28.2917 87.091 27.8409C87.091 27.3864 87.1734 26.9896 87.3381 26.6506C87.5048 26.3116 87.7359 26.0483 88.0313 25.8608C88.3287 25.6733 88.6743 25.5795 89.0682 25.5795C89.4622 25.5795 89.8069 25.6733 90.1023 25.8608C90.3997 26.0483 90.6307 26.3116 90.7955 26.6506C90.9622 26.9896 91.0455 27.3864 91.0455 27.8409C91.0455 28.2917 90.9622 28.6856 90.7955 29.0227C90.6307 29.3598 90.3997 29.6222 90.1023 29.8097C89.8069 29.9972 89.4622 30.0909 89.0682 30.0909ZM89.0682 29.4886C89.3675 29.4886 89.6137 29.4119 89.8069 29.2585C90.0001 29.1051 90.143 28.9034 90.2359 28.6534C90.3287 28.4034 90.3751 28.1326 90.3751 27.8409C90.3751 27.5492 90.3287 27.2775 90.2359 27.0256C90.143 26.7737 90.0001 26.5701 89.8069 26.4148C89.6137 26.2595 89.3675 26.1818 89.0682 26.1818C88.769 26.1818 88.5228 26.2595 88.3296 26.4148C88.1364 26.5701 87.9934 26.7737 87.9006 27.0256C87.8078 27.2775 87.7614 27.5492 87.7614 27.8409C87.7614 28.1326 87.8078 28.4034 87.9006 28.6534C87.9934 28.9034 88.1364 29.1051 88.3296 29.2585C88.5228 29.4119 88.769 29.4886 89.0682 29.4886ZM93.2194 24.1818V30H92.549V24.1818H93.2194ZM97.6774 28.2159V25.6364H98.3478V30H97.6774V29.2614H97.6319C97.5297 29.483 97.3706 29.6714 97.1547 29.8267C96.9388 29.9801 96.666 30.0568 96.3365 30.0568C96.0638 30.0568 95.8213 29.9972 95.6092 29.8778C95.3971 29.7566 95.2304 29.5748 95.1092 29.3324C94.988 29.0881 94.9274 28.7803 94.9274 28.4091V25.6364H95.5978V28.3636C95.5978 28.6818 95.6869 28.9356 95.8649 29.125C96.0448 29.3144 96.274 29.4091 96.5524 29.4091C96.7191 29.4091 96.8886 29.3665 97.0609 29.2812C97.2352 29.196 97.381 29.0653 97.4984 28.8892C97.6177 28.7131 97.6774 28.4886 97.6774 28.2159ZM101.954 25.6364V26.2045H99.6922V25.6364H101.954ZM100.351 24.5909H101.022V28.75C101.022 28.9394 101.049 29.0814 101.104 29.1761C101.161 29.2689 101.233 29.3314 101.32 29.3636C101.409 29.3939 101.503 29.4091 101.601 29.4091C101.675 29.4091 101.736 29.4053 101.783 29.3977C101.83 29.3883 101.868 29.3807 101.897 29.375L102.033 29.9773C101.988 29.9943 101.924 30.0114 101.843 30.0284C101.761 30.0473 101.658 30.0568 101.533 30.0568C101.344 30.0568 101.158 30.0161 100.976 29.9347C100.796 29.8532 100.647 29.7292 100.527 29.5625C100.41 29.3958 100.351 29.1856 100.351 28.9318V24.5909ZM103.442 30V25.6364H104.113V30H103.442ZM103.783 24.9091C103.652 24.9091 103.54 24.8646 103.445 24.7756C103.352 24.6866 103.306 24.5795 103.306 24.4545C103.306 24.3295 103.352 24.2225 103.445 24.1335C103.54 24.0445 103.652 24 103.783 24C103.914 24 104.025 24.0445 104.118 24.1335C104.213 24.2225 104.26 24.3295 104.26 24.4545C104.26 24.5795 104.213 24.6866 104.118 24.7756C104.025 24.8646 103.914 24.9091 103.783 24.9091ZM107.593 30.0909C107.199 30.0909 106.854 29.9972 106.556 29.8097C106.261 29.6222 106.03 29.3598 105.863 29.0227C105.698 28.6856 105.616 28.2917 105.616 27.8409C105.616 27.3864 105.698 26.9896 105.863 26.6506C106.03 26.3116 106.261 26.0483 106.556 25.8608C106.854 25.6733 107.199 25.5795 107.593 25.5795C107.987 25.5795 108.332 25.6733 108.627 25.8608C108.925 26.0483 109.156 26.3116 109.321 26.6506C109.487 26.9896 109.571 27.3864 109.571 27.8409C109.571 28.2917 109.487 28.6856 109.321 29.0227C109.156 29.3598 108.925 29.6222 108.627 29.8097C108.332 29.9972 107.987 30.0909 107.593 30.0909ZM107.593 29.4886C107.892 29.4886 108.139 29.4119 108.332 29.2585C108.525 29.1051 108.668 28.9034 108.761 28.6534C108.854 28.4034 108.9 28.1326 108.9 27.8409C108.9 27.5492 108.854 27.2775 108.761 27.0256C108.668 26.7737 108.525 26.5701 108.332 26.4148C108.139 26.2595 107.892 26.1818 107.593 26.1818C107.294 26.1818 107.048 26.2595 106.855 26.4148C106.661 26.5701 106.518 26.7737 106.426 27.0256C106.333 27.2775 106.286 27.5492 106.286 27.8409C106.286 28.1326 106.333 28.4034 106.426 28.6534C106.518 28.9034 106.661 29.1051 106.855 29.2585C107.048 29.4119 107.294 29.4886 107.593 29.4886ZM111.744 27.375V30H111.074V25.6364H111.722V26.3182H111.778C111.881 26.0966 112.036 25.9186 112.244 25.7841C112.453 25.6477 112.722 25.5795 113.051 25.5795C113.347 25.5795 113.605 25.6402 113.827 25.7614C114.048 25.8807 114.221 26.0625 114.344 26.3068C114.467 26.5492 114.528 26.8561 114.528 27.2273V30H113.858V27.2727C113.858 26.9299 113.769 26.6629 113.591 26.4716C113.413 26.2784 113.169 26.1818 112.858 26.1818C112.644 26.1818 112.453 26.2282 112.284 26.321C112.118 26.4138 111.986 26.5492 111.889 26.7273C111.793 26.9053 111.744 27.1212 111.744 27.375ZM119.325 26.6136L118.722 26.7841C118.684 26.6837 118.629 26.5862 118.555 26.4915C118.483 26.3949 118.384 26.3153 118.259 26.2528C118.134 26.1903 117.974 26.1591 117.779 26.1591C117.512 26.1591 117.29 26.2206 117.111 26.3438C116.935 26.465 116.847 26.6193 116.847 26.8068C116.847 26.9735 116.908 27.1051 117.029 27.2017C117.15 27.2983 117.34 27.3788 117.597 27.4432L118.245 27.6023C118.635 27.697 118.926 27.8419 119.117 28.0369C119.308 28.2301 119.404 28.4792 119.404 28.7841C119.404 29.0341 119.332 29.2576 119.188 29.4545C119.046 29.6515 118.847 29.8068 118.592 29.9205C118.336 30.0341 118.039 30.0909 117.7 30.0909C117.254 30.0909 116.886 29.9943 116.594 29.8011C116.303 29.608 116.118 29.3258 116.04 28.9545L116.677 28.7955C116.737 29.0303 116.852 29.2064 117.021 29.3239C117.191 29.4413 117.414 29.5 117.688 29.5C118.001 29.5 118.249 29.4337 118.433 29.3011C118.618 29.1667 118.711 29.0057 118.711 28.8182C118.711 28.6667 118.658 28.5398 118.552 28.4375C118.446 28.3333 118.283 28.2557 118.063 28.2045L117.336 28.0341C116.936 27.9394 116.643 27.7926 116.455 27.5938C116.27 27.393 116.177 27.142 116.177 26.8409C116.177 26.5947 116.246 26.3769 116.384 26.1875C116.524 25.9981 116.715 25.8494 116.955 25.7415C117.198 25.6335 117.472 25.5795 117.779 25.5795C118.211 25.5795 118.55 25.6742 118.796 25.8636C119.044 26.053 119.22 26.303 119.325 26.6136Z" fill="#150726"></path></svg> 